<svg width="801" height="600" viewBox="0 0 801 600" fill="none" xmlns="http://www.w3.org/2000/svg">
<path d="M402.2 86.8L446.7 114.2L421.4 127.9L402.2 117.8L244.1 210.7V314.8L371.8 391.5L345.5 405.7L215.7 327V196L402.2 86.8Z" fill="#3E54D1"/>
<path d="M466.5 127.4L281.1 232.6V306.8L305.9 320.9V246.3L466.5 157.9L553.7 207.2V227L581.6 242.3V192.5L466.5 127.4Z" fill="#3E54D1"/>
<path d="M398.5 512.3L354 484.9L379.3 471.2L398.5 481.4L556.7 388.4V284.3L428.9 207.7L455.3 193.5L585 272.2V403.2L398.5 512.3Z" fill="#3E54D1"/>
<path d="M334.2 471.8L519.8 366.7V292.5L495 278.3V352.9L334.2 441.3L247 392V372.2L219.1 357V406.7L334.2 471.8Z" fill="#3E54D1"/>
</svg>
