<svg width="13" height="13" viewBox="0 0 13 13" fill="none" xmlns="http://www.w3.org/2000/svg">
<g clip-path="url(#clip0_15_164)">
<path d="M11.548 2.12964C10.9268 1.4559 10.0745 1.08484 9.1478 1.08484C8.45511 1.08484 7.82074 1.30383 7.26227 1.73569C6.98047 1.95367 6.72513 2.22037 6.5 2.53165C6.27496 2.22046 6.01953 1.95367 5.73764 1.73569C5.17926 1.30383 4.54489 1.08484 3.8522 1.08484C2.92551 1.08484 2.07306 1.4559 1.45187 2.12964C0.838104 2.7955 0.5 3.70517 0.5 4.69119C0.5 5.70605 0.878204 6.63504 1.69019 7.61484C2.41656 8.49127 3.46054 9.38098 4.66949 10.4112C5.08231 10.7631 5.55023 11.1619 6.0361 11.5867C6.16446 11.6991 6.32916 11.761 6.5 11.761C6.67075 11.761 6.83554 11.6991 6.96371 11.5869C7.44958 11.162 7.91779 10.763 8.33078 10.4109C9.53955 9.38089 10.5835 8.49127 11.3099 7.61475C12.1219 6.63504 12.5 5.70605 12.5 4.6911C12.5 3.70517 12.1619 2.7955 11.548 2.12964Z" fill="#24252D"/>
</g>
<defs>
<clipPath id="clip0_15_164">
<rect width="12" height="12" fill="white" transform="translate(0.5 0.428589)"/>
</clipPath>
</defs>
</svg>
