<svg width="132" height="32" viewBox="0 0 132 32" fill="none" xmlns="http://www.w3.org/2000/svg">
<path d="M50.9844 25V12.3174H47.9082L44.3047 21.3086H44.2344L40.6309 12.3174H37.5547V25H39.9189V16.4395H39.9893L43.4346 24.877H45.1045L48.5498 16.4395H48.6201V25H50.9844ZM56.3018 23.2949C55.4316 23.2949 54.8516 22.8555 54.8516 22.1523C54.8516 21.4844 55.3965 21.0537 56.3545 20.9834L58.3408 20.8604V21.5459C58.3408 22.5654 57.418 23.2949 56.3018 23.2949ZM55.458 25.1494C56.6357 25.1494 57.8047 24.5605 58.332 23.5586H58.3848V25H60.8633V18.5225C60.8633 16.624 59.29 15.376 56.873 15.376C54.377 15.376 52.8213 16.6328 52.7246 18.4609H55.0713C55.1943 17.7666 55.8008 17.292 56.7588 17.292C57.7256 17.292 58.3408 17.8018 58.3408 18.6807V19.3047L55.9678 19.4453C53.6211 19.5859 52.3027 20.5791 52.3027 22.293C52.3027 23.9893 53.665 25.1494 55.458 25.1494ZM62.5244 25H65.0908V19.5947C65.0908 18.373 65.8203 17.5293 66.9717 17.5293C68.123 17.5293 68.7031 18.2324 68.7031 19.4629V25H71.2695V18.9268C71.2695 16.7207 70.0918 15.4023 68 15.4023C66.5498 15.4023 65.5566 16.0879 65.0557 17.2568H65.0029V15.5781H62.5244V25ZM72.8955 25H75.4619V19.5947C75.4619 18.373 76.1914 17.5293 77.3428 17.5293C78.4941 17.5293 79.0742 18.2324 79.0742 19.4629V25H81.6406V18.9268C81.6406 16.7207 80.4629 15.4023 78.3711 15.4023C76.9209 15.4023 75.9277 16.0879 75.4268 17.2568H75.374V15.5781H72.8955V25ZM83.3281 25H85.8945V19.6211C85.8945 18.3818 86.6064 17.5293 87.8193 17.5293C88.9883 17.5293 89.5859 18.2676 89.5859 19.4805V25H92.1523V18.9355C92.1523 16.7559 90.957 15.4023 88.8652 15.4023C87.4326 15.4023 86.4043 16.0703 85.9033 17.2568H85.8506V12.3174H83.3281V25ZM98.0234 17.2744C99.166 17.2744 99.9482 18.1006 100.001 19.3047H96.002C96.0898 18.127 96.8984 17.2744 98.0234 17.2744ZM100.036 22.1172C99.7988 22.8379 99.0781 23.3037 98.1377 23.3037C96.8281 23.3037 95.9756 22.3809 95.9756 21.0361V20.8779H102.471V20.0957C102.471 17.2305 100.739 15.376 97.9971 15.376C95.2109 15.376 93.4531 17.3271 93.4531 20.333C93.4531 23.3477 95.1934 25.2021 98.0938 25.2021C100.423 25.2021 102.11 23.9629 102.392 22.1172H100.036ZM103.842 25H106.408V15.5781H103.842V25ZM105.125 14.541C105.898 14.541 106.496 13.9521 106.496 13.2139C106.496 12.4668 105.898 11.8867 105.125 11.8867C104.352 11.8867 103.754 12.4668 103.754 13.2139C103.754 13.9521 104.352 14.541 105.125 14.541ZM108.122 25H110.688V19.3135C110.688 18.2588 111.348 17.5205 112.323 17.5205C113.272 17.5205 113.844 18.1182 113.844 19.1289V25H116.313V19.2783C116.313 18.2324 116.955 17.5205 117.931 17.5205C118.924 17.5205 119.469 18.1182 119.469 19.208V25H122.035V18.5664C122.035 16.668 120.796 15.4023 118.95 15.4023C117.57 15.4023 116.445 16.1494 116.023 17.3359H115.971C115.654 16.1055 114.705 15.4023 113.343 15.4023C112.06 15.4023 111.049 16.1494 110.653 17.2832H110.601V15.5781H108.122V25Z" fill="white"/>
<rect x="0.5" width="32" height="32" rx="10" fill="url(#paint0_linear_103_522)"/>
<path d="M16.19 3L18.86 4.644L17.342 5.466L16.19 4.86L6.704 10.434V16.68L14.366 21.282L12.788 22.134L5 17.412V9.552L16.19 3Z" fill="white"/>
<path d="M20.0481 5.43597L8.92407 11.748V16.2L10.4121 17.046V12.57L20.0481 7.26597L25.2801 10.224V11.412L26.9541 12.33V9.34197L20.0481 5.43597Z" fill="white"/>
<path d="M15.9681 28.53L13.2981 26.886L14.8161 26.064L15.9681 26.676L25.4601 21.096V14.85L17.7921 10.254L19.3761 9.40198L27.1581 14.124V21.984L15.9681 28.53Z" fill="white"/>
<path d="M12.1101 26.1L23.2461 19.794V15.342L21.7581 14.49V18.966L12.1101 24.27L6.8781 21.312V20.124L5.2041 19.212V22.194L12.1101 26.1Z" fill="white"/>
<defs>
<linearGradient id="paint0_linear_103_522" x1="10.9727" y1="5.58767e-07" x2="37.7552" y2="5.26436" gradientUnits="userSpaceOnUse">
<stop stop-color="#50C9C9"/>
<stop offset="0.921875" stop-color="#B5DBDB"/>
<stop offset="0.9999" stop-color="#C91CC3"/>
<stop offset="1" stop-color="#C81CC5"/>
</linearGradient>
</defs>
</svg>
